<?xml version="1.0" encoding="UTF-8"?>
<svg id="Layer_2" data-name="Layer 2" xmlns="http://www.w3.org/2000/svg" xmlns:xlink="http://www.w3.org/1999/xlink" viewBox="0 0 481 85.79">
  <defs>
    <style>
      .cls-1 {
        fill: none;
      }

      .cls-2 {
        fill: #fff;
      }

      .cls-3 {
        fill: #fdfefe;
      }

      .cls-4 {
        clip-path: url(#clippath);
      }
    </style>
    <clipPath id="clippath">
      <rect class="cls-1" width="481" height="85.79"/>
    </clipPath>
  </defs>
  <g id="Layer_1-2" data-name="Layer 1">
    <g class="cls-4">
      <path class="cls-2" d="M449.67,26.95c15.41,0,21.15,5.24,21.15,23.67v2.92c0,18.44-5.84,23.47-20.75,23.47h-5.64c-1.31,0-1.81-.5-1.81-1.81v-19.54h8.46c2.01,0,3.83.1,3.83-2.42v-3.32c0-2.12-.3-2.62-2.22-2.62h-10.07v-18.44c0-1.01.4-1.61,1.51-1.71,1.11-.1,3.73-.2,5.54-.2M448.77,84.88c24.08,0,32.24-8.97,32.24-30.12v-5.34c0-22.87-9.97-30.42-32.34-30.42-4.83,0-8.97.2-12.99.61-2.22.2-2.92,1.11-2.92,3.42v24.28h-3.99c-1.61,0-2.01.5-2.01,2.22v3.93c0,1.71.4,2.22,2.01,2.22h3.99v26.09c0,2.12.81,2.92,3.02,3.02,3.83.1,8.56.1,13,.1M407.91,19.7c-1.61,0-2.12.5-2.12,2.12v60.95c0,1.71.6,2.11,2.22,2.11h5.44c1.61,0,2.22-2.11,2.22-2.11V21.82c0-1.61-.6-2.12-2.22-2.12h-5.54ZM377.74,82.16c1.11,1.91,2.01,2.72,4.73,2.72h5.34c2.32,0,3.02-.5,3.02-2.72V21.82c0-1.61-.5-2.12-2.12-2.12h-4.83c-1.61,0-2.12.5-2.12,2.12v48.66h-.5l-26.09-47.95c-1.11-2.01-2.01-2.82-4.73-2.82h-5.34c-2.32,0-3.02.5-3.02,2.82v60.24c0,1.71.5,2.11,2.12,2.11h4.84c1.61,0,2.11-.4,2.11-2.11v-48.66h.5l26.09,48.05ZM319.81,53.45c0,10.07-.3,16.22-3.63,20.05-2.42,2.82-5.84,4.23-11.28,4.23s-8.87-1.41-11.28-4.23c-3.33-3.83-3.63-9.97-3.63-20.05v-2.32c0-10.07.3-16.22,3.63-20.05,2.42-2.82,5.84-4.23,11.28-4.23s8.87,1.41,11.28,4.23c3.33,3.83,3.63,9.97,3.63,20.05v2.32ZM329.99,50.02c0-13.4-1.41-19.64-6.25-24.98-3.53-3.83-10.07-6.25-18.84-6.25s-15.31,2.42-18.84,6.25c-4.83,5.34-6.25,11.59-6.25,24.98v4.63c0,13.4,1.41,19.54,6.25,24.88,3.53,3.83,10.07,6.25,18.84,6.25s15.31-2.42,18.84-6.25c4.83-5.34,6.25-11.48,6.25-24.88v-4.63ZM252.96,21.82c0-1.61-.6-2.12-2.22-2.12h-5.44c-1.61,0-2.22.5-2.22,2.12v54c0,6.04,2.62,9.07,9.67,9.07h20.75c1.71,0,2.11-.5,2.11-1.81v-4.33c0-1.41-.4-1.81-2.11-1.81h-17.63c-2.22,0-2.92-.7-2.92-2.72V21.82ZM174.41,29.47c3.12,9.17,6.25,19.74,9.07,29.42h-18.74c2.82-9.67,5.94-20.25,9.07-29.42h.6ZM172,19.7c-3.32,0-4.33.4-5.34,3.22-5.74,16.22-12.39,37.48-17.93,57.62-.3,1.01-.71,2.22-.71,3.12,0,.81.5,1.21,2.01,1.21h4.84c2.32,0,2.92-.2,3.43-2.11,1.11-4.53,2.62-10.28,4.13-15.51h23.37c1.51,5.24,3.02,10.98,4.13,15.51.5,1.91,1.11,2.11,3.42,2.11h4.84c1.51,0,2.01-.4,2.01-1.21,0-.91-.4-2.11-.71-3.12-5.54-20.15-12.19-41.41-17.93-57.62-1.01-2.82-2.02-3.22-5.34-3.22h-4.23ZM109.33,7.61c-.71.3-1.21.71-1.31,1.21,0,.5.2.81.6,1.51l1.31,2.62c.4.91.91,1.31,1.31,1.31.5,0,1.01-.1,1.81-.4l15.67-5.3c1.21-.5,1.51-.91,1.61-1.51,0-.5-.3-1.11-.81-2.22l-1.91-3.63C127.21.3,126.81.1,126.31,0c-.5,0-.81.1-1.51.5l-15.47,7.11ZM115.63,29.47c3.12,9.17,6.24,19.74,9.07,29.42h-18.74c2.82-9.67,5.94-20.25,9.07-29.42h.61ZM113.21,19.7c-3.33,0-4.33.4-5.34,3.22-5.74,16.22-12.39,37.48-17.93,57.62-.3,1.01-.71,2.22-.71,3.12,0,.81.5,1.21,2.01,1.21h4.84c2.32,0,2.92-.2,3.42-2.11,1.11-4.53,2.62-10.28,4.13-15.51h23.37c1.51,5.24,3.02,10.98,4.13,15.51.5,1.91,1.11,2.11,3.43,2.11h4.84c1.51,0,2.01-.4,2.01-1.21,0-.91-.4-2.11-.71-3.12-5.54-20.15-12.19-41.41-17.93-57.62-1.01-2.82-2.01-3.22-5.34-3.22h-4.23ZM62.97,21.82c0-1.61-.6-2.12-2.22-2.12h-5.44c-1.61,0-2.22.5-2.22,2.12v54c0,6.04,2.62,9.07,9.67,9.07h17.84c1.71,0,2.12-.5,2.12-1.81v-4.33c0-1.41-.4-1.81-2.12-1.81h-14.72c-2.22,0-2.92-.7-2.92-2.72V21.82ZM10.98,27.16c1.31-.3,3.53-.4,6.15-.4,7.76,0,11.58,2.42,11.58,9.07v.91c0,7.66-3.83,10.38-12.89,10.38h-5.94v-18.44c0-1.01.3-1.31,1.11-1.51M17.73,54.86c10.58,0,15.01,2.72,15.01,10.28v1.01c0,8.26-5.84,10.78-15.21,10.78-2.01,0-4.13,0-5.84-.1-1.01-.1-1.81-.5-1.81-1.91v-20.05h7.86ZM16.12,18.79c-4.53,0-9.47.4-13.3,1.11C.6,20.31,0,21.01,0,23.43v57.72c0,2.32.7,3.12,3.02,3.32,3.93.3,8.66.4,13.9.4,16.52,0,25.99-5.34,25.99-18.94v-1.11c0-8.46-5.04-13.4-12.59-14.91v-.1c5.44-1.91,8.56-7.05,8.56-13.7v-1.11c0-11.18-8.16-16.22-22.77-16.22"/>
      <path class="cls-3" d="M294.55,7.61c-.7.3-1.21.71-1.31,1.21,0,.5.2.81.61,1.51l1.31,2.62c.4.91.91,1.31,1.31,1.31.5,0,1.01-.1,1.81-.4l15.67-5.3c1.21-.5,1.51-.91,1.61-1.51,0-.5-.3-1.11-.81-2.22l-1.91-3.63c-.4-.91-.81-1.11-1.31-1.21-.5,0-.81.1-1.51.5l-15.47,7.11Z"/>
    </g>
  </g>
</svg>